<mxfile host="app.diagrams.net" modified="2023-05-20T16:16:54.280Z" agent="Mozilla/5.0 (Windows NT 10.0; Win64; x64) AppleWebKit/537.36 (KHTML, like Gecko) Chrome/113.0.0.0 Safari/537.36" etag="N4vcBv3hK_ALweDA1Nb4" version="21.3.2" type="github">
  <diagram id="kNOZGvcKdx7D5Ul5yRG0" name="Page-1">
    <mxGraphModel dx="2643" dy="1284" grid="1" gridSize="10" guides="1" tooltips="1" connect="1" arrows="1" fold="1" page="1" pageScale="1" pageWidth="850" pageHeight="1100" math="0" shadow="0">
      <root>
        <mxCell id="0" />
        <mxCell id="1" parent="0" />
        <mxCell id="PthYUHCUgvxS9hrxW5bo-1" value="&lt;span style=&quot;white-space: pre;&quot;&gt;	&lt;/span&gt;Training" style="rounded=1;whiteSpace=wrap;html=1;fontFamily=Times New Roman;dashed=1;align=left;verticalAlign=top;" parent="1" vertex="1">
          <mxGeometry x="80" y="210" width="300" height="120" as="geometry" />
        </mxCell>
        <mxCell id="kqa18zYB_hWgZnCbzZVT-15" style="edgeStyle=orthogonalEdgeStyle;rounded=0;orthogonalLoop=1;jettySize=auto;html=1;entryX=0;entryY=0.5;entryDx=0;entryDy=0;" parent="1" source="kqa18zYB_hWgZnCbzZVT-2" target="kqa18zYB_hWgZnCbzZVT-14" edge="1">
          <mxGeometry relative="1" as="geometry" />
        </mxCell>
        <mxCell id="kqa18zYB_hWgZnCbzZVT-16" style="edgeStyle=orthogonalEdgeStyle;rounded=0;orthogonalLoop=1;jettySize=auto;html=1;exitX=1;exitY=0.5;exitDx=0;exitDy=0;entryX=0;entryY=0.5;entryDx=0;entryDy=0;" parent="1" source="kqa18zYB_hWgZnCbzZVT-2" target="kqa18zYB_hWgZnCbzZVT-13" edge="1">
          <mxGeometry relative="1" as="geometry" />
        </mxCell>
        <mxCell id="kqa18zYB_hWgZnCbzZVT-2" value="D&lt;span style=&quot;font-size: 10px;&quot;&gt;&lt;sub&gt;Train&lt;/sub&gt;&lt;/span&gt;" style="rounded=0;whiteSpace=wrap;html=1;fontFamily=Times New Roman;" parent="1" vertex="1">
          <mxGeometry x="-160" y="255" width="60" height="30" as="geometry" />
        </mxCell>
        <mxCell id="kqa18zYB_hWgZnCbzZVT-4" value="Loss" style="rounded=0;whiteSpace=wrap;html=1;fontFamily=Times New Roman;dashed=1;" parent="1" vertex="1">
          <mxGeometry x="240" y="245" width="120" height="60" as="geometry" />
        </mxCell>
        <mxCell id="kqa18zYB_hWgZnCbzZVT-11" style="edgeStyle=orthogonalEdgeStyle;rounded=0;orthogonalLoop=1;jettySize=auto;html=1;entryX=0;entryY=0.5;entryDx=0;entryDy=0;" parent="1" source="kqa18zYB_hWgZnCbzZVT-5" target="kqa18zYB_hWgZnCbzZVT-10" edge="1">
          <mxGeometry relative="1" as="geometry">
            <Array as="points">
              <mxPoint x="-210" y="295" />
              <mxPoint x="-210" y="325" />
            </Array>
          </mxGeometry>
        </mxCell>
        <mxCell id="kqa18zYB_hWgZnCbzZVT-12" style="edgeStyle=orthogonalEdgeStyle;rounded=0;orthogonalLoop=1;jettySize=auto;html=1;exitX=1;exitY=0.5;exitDx=0;exitDy=0;" parent="1" source="kqa18zYB_hWgZnCbzZVT-5" target="kqa18zYB_hWgZnCbzZVT-2" edge="1">
          <mxGeometry relative="1" as="geometry" />
        </mxCell>
        <mxCell id="kqa18zYB_hWgZnCbzZVT-5" value="Data" style="rounded=0;whiteSpace=wrap;html=1;fontFamily=Times New Roman;" parent="1" vertex="1">
          <mxGeometry x="-380" y="265" width="120" height="60" as="geometry" />
        </mxCell>
        <mxCell id="kqa18zYB_hWgZnCbzZVT-6" value="&lt;div&gt;Classifier&lt;/div&gt;" style="rounded=0;whiteSpace=wrap;html=1;fontFamily=Times New Roman;" parent="1" vertex="1">
          <mxGeometry x="100" y="245" width="120" height="60" as="geometry" />
        </mxCell>
        <mxCell id="kqa18zYB_hWgZnCbzZVT-39" style="edgeStyle=orthogonalEdgeStyle;rounded=0;orthogonalLoop=1;jettySize=auto;html=1;entryX=0;entryY=0.5;entryDx=0;entryDy=0;" parent="1" source="kqa18zYB_hWgZnCbzZVT-10" target="kqa18zYB_hWgZnCbzZVT-38" edge="1">
          <mxGeometry relative="1" as="geometry" />
        </mxCell>
        <mxCell id="kqa18zYB_hWgZnCbzZVT-40" style="edgeStyle=orthogonalEdgeStyle;rounded=0;orthogonalLoop=1;jettySize=auto;html=1;entryX=0;entryY=0.5;entryDx=0;entryDy=0;" parent="1" source="kqa18zYB_hWgZnCbzZVT-10" target="kqa18zYB_hWgZnCbzZVT-37" edge="1">
          <mxGeometry relative="1" as="geometry" />
        </mxCell>
        <mxCell id="kqa18zYB_hWgZnCbzZVT-10" value="D&lt;span style=&quot;font-size: 10px;&quot;&gt;&lt;sub&gt;Test&lt;/sub&gt;&lt;/span&gt;" style="rounded=0;whiteSpace=wrap;html=1;fontFamily=Times New Roman;" parent="1" vertex="1">
          <mxGeometry x="-160" y="310" width="60" height="30" as="geometry" />
        </mxCell>
        <mxCell id="kqa18zYB_hWgZnCbzZVT-13" value="s" style="rounded=0;whiteSpace=wrap;html=1;fontFamily=Times New Roman;fillColor=#f5f5f5;fontColor=#333333;strokeColor=#666666;" parent="1" vertex="1">
          <mxGeometry x="-50" y="200" width="60" height="30" as="geometry" />
        </mxCell>
        <mxCell id="kqa18zYB_hWgZnCbzZVT-34" style="edgeStyle=orthogonalEdgeStyle;rounded=0;orthogonalLoop=1;jettySize=auto;html=1;exitX=1;exitY=0.5;exitDx=0;exitDy=0;entryX=0;entryY=0.5;entryDx=0;entryDy=0;" parent="1" source="kqa18zYB_hWgZnCbzZVT-14" target="PthYUHCUgvxS9hrxW5bo-1" edge="1">
          <mxGeometry relative="1" as="geometry" />
        </mxCell>
        <mxCell id="kqa18zYB_hWgZnCbzZVT-14" value="x" style="rounded=0;whiteSpace=wrap;html=1;fontFamily=Times New Roman;" parent="1" vertex="1">
          <mxGeometry x="-50" y="255" width="60" height="30" as="geometry" />
        </mxCell>
        <mxCell id="kqa18zYB_hWgZnCbzZVT-20" value="Data" style="rounded=0;whiteSpace=wrap;html=1;fontFamily=Times New Roman;" parent="1" vertex="1">
          <mxGeometry x="-660" y="20" width="120" height="60" as="geometry" />
        </mxCell>
        <mxCell id="kqa18zYB_hWgZnCbzZVT-24" value="Data" style="rounded=0;whiteSpace=wrap;html=1;fontFamily=Times New Roman;" parent="1" vertex="1">
          <mxGeometry x="-650" y="30" width="120" height="60" as="geometry" />
        </mxCell>
        <mxCell id="kqa18zYB_hWgZnCbzZVT-25" value="Data" style="rounded=0;whiteSpace=wrap;html=1;fontFamily=Times New Roman;" parent="1" vertex="1">
          <mxGeometry x="-640" y="40" width="120" height="60" as="geometry" />
        </mxCell>
        <mxCell id="kqa18zYB_hWgZnCbzZVT-26" value="Data" style="rounded=0;whiteSpace=wrap;html=1;fontFamily=Times New Roman;" parent="1" vertex="1">
          <mxGeometry x="-630" y="50" width="120" height="60" as="geometry" />
        </mxCell>
        <mxCell id="kqa18zYB_hWgZnCbzZVT-27" value="Data" style="rounded=0;whiteSpace=wrap;html=1;fontFamily=Times New Roman;" parent="1" vertex="1">
          <mxGeometry x="-620" y="60" width="120" height="60" as="geometry" />
        </mxCell>
        <mxCell id="kqa18zYB_hWgZnCbzZVT-28" value="Data" style="rounded=0;whiteSpace=wrap;html=1;fontFamily=Times New Roman;" parent="1" vertex="1">
          <mxGeometry x="-610" y="70" width="120" height="60" as="geometry" />
        </mxCell>
        <mxCell id="kqa18zYB_hWgZnCbzZVT-29" value="Data" style="rounded=0;whiteSpace=wrap;html=1;fontFamily=Times New Roman;" parent="1" vertex="1">
          <mxGeometry x="-600" y="80" width="120" height="60" as="geometry" />
        </mxCell>
        <mxCell id="kqa18zYB_hWgZnCbzZVT-46" value="" style="edgeStyle=orthogonalEdgeStyle;rounded=0;orthogonalLoop=1;jettySize=auto;html=1;" parent="1" source="kqa18zYB_hWgZnCbzZVT-35" target="kqa18zYB_hWgZnCbzZVT-45" edge="1">
          <mxGeometry relative="1" as="geometry" />
        </mxCell>
        <mxCell id="kqa18zYB_hWgZnCbzZVT-35" value="&lt;div&gt;Classifier&lt;/div&gt;" style="rounded=0;whiteSpace=wrap;html=1;fontFamily=Times New Roman;" parent="1" vertex="1">
          <mxGeometry x="100" y="365" width="120" height="60" as="geometry" />
        </mxCell>
        <mxCell id="kqa18zYB_hWgZnCbzZVT-57" style="edgeStyle=orthogonalEdgeStyle;rounded=0;orthogonalLoop=1;jettySize=auto;html=1;entryX=0;entryY=0.5;entryDx=0;entryDy=0;" parent="1" source="kqa18zYB_hWgZnCbzZVT-37" target="kqa18zYB_hWgZnCbzZVT-56" edge="1">
          <mxGeometry relative="1" as="geometry" />
        </mxCell>
        <mxCell id="kqa18zYB_hWgZnCbzZVT-37" value="s" style="rounded=0;whiteSpace=wrap;html=1;fontFamily=Times New Roman;" parent="1" vertex="1">
          <mxGeometry x="-50" y="435" width="60" height="30" as="geometry" />
        </mxCell>
        <mxCell id="kqa18zYB_hWgZnCbzZVT-41" style="edgeStyle=orthogonalEdgeStyle;rounded=0;orthogonalLoop=1;jettySize=auto;html=1;exitX=1;exitY=0.5;exitDx=0;exitDy=0;entryX=0;entryY=0.5;entryDx=0;entryDy=0;" parent="1" source="kqa18zYB_hWgZnCbzZVT-38" target="kqa18zYB_hWgZnCbzZVT-35" edge="1">
          <mxGeometry relative="1" as="geometry" />
        </mxCell>
        <mxCell id="kqa18zYB_hWgZnCbzZVT-38" value="x" style="rounded=0;whiteSpace=wrap;html=1;fontFamily=Times New Roman;" parent="1" vertex="1">
          <mxGeometry x="-50" y="380" width="60" height="30" as="geometry" />
        </mxCell>
        <mxCell id="kqa18zYB_hWgZnCbzZVT-58" style="edgeStyle=orthogonalEdgeStyle;rounded=0;orthogonalLoop=1;jettySize=auto;html=1;entryX=0;entryY=0.5;entryDx=0;entryDy=0;" parent="1" source="kqa18zYB_hWgZnCbzZVT-45" target="kqa18zYB_hWgZnCbzZVT-56" edge="1">
          <mxGeometry relative="1" as="geometry" />
        </mxCell>
        <mxCell id="kqa18zYB_hWgZnCbzZVT-45" value="p" style="rounded=0;whiteSpace=wrap;html=1;fontFamily=Times New Roman;" parent="1" vertex="1">
          <mxGeometry x="270" y="380" width="60" height="30" as="geometry" />
        </mxCell>
        <mxCell id="kqa18zYB_hWgZnCbzZVT-56" value="&lt;div&gt;Unsupervised Clustering accuracy&lt;/div&gt;" style="rounded=1;whiteSpace=wrap;html=1;fontFamily=Times New Roman;dashed=1;" parent="1" vertex="1">
          <mxGeometry x="420" y="420" width="120" height="60" as="geometry" />
        </mxCell>
        <mxCell id="0C2OZnRyXsANfn3O69fW-1" value="&lt;span style=&quot;white-space: pre;&quot;&gt;	&lt;/span&gt;Training" style="rounded=1;whiteSpace=wrap;html=1;fontFamily=Times New Roman;dashed=1;align=left;verticalAlign=top;" vertex="1" parent="1">
          <mxGeometry x="-335" y="850" width="300" height="120" as="geometry" />
        </mxCell>
        <mxCell id="0C2OZnRyXsANfn3O69fW-31" style="edgeStyle=orthogonalEdgeStyle;rounded=0;orthogonalLoop=1;jettySize=auto;html=1;exitX=0.5;exitY=1;exitDx=0;exitDy=0;entryX=0.5;entryY=0;entryDx=0;entryDy=0;" edge="1" parent="1" source="0C2OZnRyXsANfn3O69fW-4" target="0C2OZnRyXsANfn3O69fW-15">
          <mxGeometry relative="1" as="geometry" />
        </mxCell>
        <mxCell id="0C2OZnRyXsANfn3O69fW-32" style="edgeStyle=orthogonalEdgeStyle;rounded=0;orthogonalLoop=1;jettySize=auto;html=1;exitX=0.5;exitY=1;exitDx=0;exitDy=0;entryX=0.5;entryY=0;entryDx=0;entryDy=0;" edge="1" parent="1" source="0C2OZnRyXsANfn3O69fW-4" target="0C2OZnRyXsANfn3O69fW-13">
          <mxGeometry relative="1" as="geometry" />
        </mxCell>
        <mxCell id="0C2OZnRyXsANfn3O69fW-4" value="D&lt;span style=&quot;font-size: 10px;&quot;&gt;&lt;sub&gt;Train&lt;/sub&gt;&lt;/span&gt;" style="rounded=0;whiteSpace=wrap;html=1;fontFamily=Times New Roman;" vertex="1" parent="1">
          <mxGeometry x="-310" y="685" width="60" height="30" as="geometry" />
        </mxCell>
        <mxCell id="0C2OZnRyXsANfn3O69fW-5" value="Loss" style="rounded=1;whiteSpace=wrap;html=1;fontFamily=Times New Roman;" vertex="1" parent="1">
          <mxGeometry x="-320" y="890" width="120" height="60" as="geometry" />
        </mxCell>
        <mxCell id="0C2OZnRyXsANfn3O69fW-45" style="edgeStyle=orthogonalEdgeStyle;rounded=0;orthogonalLoop=1;jettySize=auto;html=1;entryX=0.5;entryY=0;entryDx=0;entryDy=0;" edge="1" parent="1" source="0C2OZnRyXsANfn3O69fW-8" target="0C2OZnRyXsANfn3O69fW-12">
          <mxGeometry relative="1" as="geometry" />
        </mxCell>
        <mxCell id="0C2OZnRyXsANfn3O69fW-47" style="edgeStyle=orthogonalEdgeStyle;rounded=0;orthogonalLoop=1;jettySize=auto;html=1;exitX=0.5;exitY=1;exitDx=0;exitDy=0;entryX=0.5;entryY=0;entryDx=0;entryDy=0;" edge="1" parent="1" source="0C2OZnRyXsANfn3O69fW-8" target="0C2OZnRyXsANfn3O69fW-4">
          <mxGeometry relative="1" as="geometry" />
        </mxCell>
        <mxCell id="0C2OZnRyXsANfn3O69fW-8" value="Preprocessing" style="rounded=1;whiteSpace=wrap;html=1;fontFamily=Times New Roman;dashed=1;" vertex="1" parent="1">
          <mxGeometry x="-295" y="570" width="120" height="60" as="geometry" />
        </mxCell>
        <mxCell id="0C2OZnRyXsANfn3O69fW-9" value="&lt;div&gt;Classifier&lt;/div&gt;" style="rounded=1;whiteSpace=wrap;html=1;fontFamily=Times New Roman;" vertex="1" parent="1">
          <mxGeometry x="-175" y="890" width="120" height="60" as="geometry" />
        </mxCell>
        <mxCell id="0C2OZnRyXsANfn3O69fW-34" style="edgeStyle=orthogonalEdgeStyle;rounded=0;orthogonalLoop=1;jettySize=auto;html=1;entryX=0.5;entryY=0;entryDx=0;entryDy=0;" edge="1" parent="1" source="0C2OZnRyXsANfn3O69fW-12" target="0C2OZnRyXsANfn3O69fW-21">
          <mxGeometry relative="1" as="geometry" />
        </mxCell>
        <mxCell id="0C2OZnRyXsANfn3O69fW-35" style="edgeStyle=orthogonalEdgeStyle;rounded=0;orthogonalLoop=1;jettySize=auto;html=1;exitX=1;exitY=0.5;exitDx=0;exitDy=0;entryX=0;entryY=0.5;entryDx=0;entryDy=0;" edge="1" parent="1" source="0C2OZnRyXsANfn3O69fW-12" target="0C2OZnRyXsANfn3O69fW-19">
          <mxGeometry relative="1" as="geometry" />
        </mxCell>
        <mxCell id="0C2OZnRyXsANfn3O69fW-12" value="D&lt;span style=&quot;font-size: 10px;&quot;&gt;&lt;sub&gt;Test&lt;/sub&gt;&lt;/span&gt;" style="rounded=0;whiteSpace=wrap;html=1;fontFamily=Times New Roman;" vertex="1" parent="1">
          <mxGeometry x="-220" y="685" width="60" height="30" as="geometry" />
        </mxCell>
        <mxCell id="0C2OZnRyXsANfn3O69fW-13" value="s" style="rounded=0;whiteSpace=wrap;html=1;fontFamily=Times New Roman;fillColor=#f5f5f5;fontColor=#333333;strokeColor=#666666;" vertex="1" parent="1">
          <mxGeometry x="-400" y="770" width="60" height="30" as="geometry" />
        </mxCell>
        <mxCell id="0C2OZnRyXsANfn3O69fW-33" style="edgeStyle=orthogonalEdgeStyle;rounded=0;orthogonalLoop=1;jettySize=auto;html=1;entryX=0.186;entryY=0.006;entryDx=0;entryDy=0;entryPerimeter=0;" edge="1" parent="1" source="0C2OZnRyXsANfn3O69fW-15" target="0C2OZnRyXsANfn3O69fW-1">
          <mxGeometry relative="1" as="geometry" />
        </mxCell>
        <mxCell id="0C2OZnRyXsANfn3O69fW-15" value="x" style="rounded=0;whiteSpace=wrap;html=1;fontFamily=Times New Roman;" vertex="1" parent="1">
          <mxGeometry x="-310" y="770" width="60" height="30" as="geometry" />
        </mxCell>
        <mxCell id="0C2OZnRyXsANfn3O69fW-37" style="edgeStyle=orthogonalEdgeStyle;rounded=0;orthogonalLoop=1;jettySize=auto;html=1;" edge="1" parent="1" source="0C2OZnRyXsANfn3O69fW-17" target="0C2OZnRyXsANfn3O69fW-23">
          <mxGeometry relative="1" as="geometry" />
        </mxCell>
        <mxCell id="0C2OZnRyXsANfn3O69fW-17" value="&lt;div&gt;Classifier&lt;/div&gt;" style="rounded=1;whiteSpace=wrap;html=1;fontFamily=Times New Roman;" vertex="1" parent="1">
          <mxGeometry x="-45" y="755" width="120" height="60" as="geometry" />
        </mxCell>
        <mxCell id="0C2OZnRyXsANfn3O69fW-41" value="" style="edgeStyle=orthogonalEdgeStyle;rounded=0;orthogonalLoop=1;jettySize=auto;html=1;" edge="1" parent="1" source="0C2OZnRyXsANfn3O69fW-19" target="0C2OZnRyXsANfn3O69fW-24">
          <mxGeometry relative="1" as="geometry" />
        </mxCell>
        <mxCell id="0C2OZnRyXsANfn3O69fW-19" value="s" style="rounded=0;whiteSpace=wrap;html=1;fontFamily=Times New Roman;" vertex="1" parent="1">
          <mxGeometry x="-105" y="685" width="60" height="30" as="geometry" />
        </mxCell>
        <mxCell id="0C2OZnRyXsANfn3O69fW-36" style="edgeStyle=orthogonalEdgeStyle;rounded=0;orthogonalLoop=1;jettySize=auto;html=1;entryX=0;entryY=0.5;entryDx=0;entryDy=0;" edge="1" parent="1" source="0C2OZnRyXsANfn3O69fW-21" target="0C2OZnRyXsANfn3O69fW-17">
          <mxGeometry relative="1" as="geometry" />
        </mxCell>
        <mxCell id="0C2OZnRyXsANfn3O69fW-21" value="x" style="rounded=0;whiteSpace=wrap;html=1;fontFamily=Times New Roman;" vertex="1" parent="1">
          <mxGeometry x="-220" y="770" width="60" height="30" as="geometry" />
        </mxCell>
        <mxCell id="0C2OZnRyXsANfn3O69fW-24" value="&lt;div&gt;Unsupervised Clustering Accuracy&lt;/div&gt;" style="rounded=1;whiteSpace=wrap;html=1;fontFamily=Times New Roman;" vertex="1" parent="1">
          <mxGeometry x="-95" y="570" width="120" height="60" as="geometry" />
        </mxCell>
        <mxCell id="0C2OZnRyXsANfn3O69fW-38" style="edgeStyle=orthogonalEdgeStyle;rounded=0;orthogonalLoop=1;jettySize=auto;html=1;exitX=0.5;exitY=0;exitDx=0;exitDy=0;entryX=0.5;entryY=1;entryDx=0;entryDy=0;" edge="1" parent="1" source="0C2OZnRyXsANfn3O69fW-23" target="0C2OZnRyXsANfn3O69fW-24">
          <mxGeometry relative="1" as="geometry" />
        </mxCell>
        <mxCell id="0C2OZnRyXsANfn3O69fW-23" value="p" style="rounded=0;whiteSpace=wrap;html=1;fontFamily=Times New Roman;" vertex="1" parent="1">
          <mxGeometry x="-15" y="685" width="60" height="30" as="geometry" />
        </mxCell>
        <mxCell id="0C2OZnRyXsANfn3O69fW-44" value="" style="edgeStyle=orthogonalEdgeStyle;rounded=0;orthogonalLoop=1;jettySize=auto;html=1;" edge="1" parent="1" source="0C2OZnRyXsANfn3O69fW-43" target="0C2OZnRyXsANfn3O69fW-8">
          <mxGeometry relative="1" as="geometry" />
        </mxCell>
        <mxCell id="0C2OZnRyXsANfn3O69fW-43" value="Data" style="rounded=0;whiteSpace=wrap;html=1;fontFamily=Times New Roman;" vertex="1" parent="1">
          <mxGeometry x="-295" y="465" width="120" height="60" as="geometry" />
        </mxCell>
      </root>
    </mxGraphModel>
  </diagram>
</mxfile>
